<?xml version="1.0" encoding="utf-8"?>
<svg
  xmlns="http://www.w3.org/2000/svg"
  width="64"
  height="64"
  viewBox="42 38 164 154"
  preserveAspectRatio="xMidYMid meet"
>
  <path
    fill="var(--icon-fill, #aaa)"
    d="
M 94.35 94.6
L 63.24 160.14
L 91.88 178.89
L 122.87 160.09
Z

M 95.83 93.54
L 124.61 159.83
L 141.34 154.43
L 142.42 128.46
Z

M 92.85 181.64
L 92.85 191.67
L 140.74 158.04
L 124.78 162.52
Z

M 91.21 93.8
L 59.78 159.98
L 43.41 152.88
L 41.97 126.42
Z

M 89.07 181.44
L 89.07 191.7
L 43.18 156.42
L 59.09 162.59
Z

M 158.35 38.6
L 127.24 104.14
L 155.88 122.89
L 186.87 104.09
Z

M 159.83 37.54
L 188.61 103.83
L 205.34 98.43
L 206.42 72.46
Z

M 156.85 125.64
L 156.85 135.67
L 204.74 102.04
L 188.78 106.52
Z

M 155.21 37.8
L 123.78 103.98
L 107.41 96.88
L 105.97 70.42
Z

M 153.07 125.44
L 153.07 135.7
L 107.18 100.42
L 123.09 106.59
Z
"
  />
</svg>